<?xml version="1.0" encoding="utf-8"?>
<!-- Generator: Adobe Illustrator 16.0.0, SVG Export Plug-In . SVG Version: 6.00 Build 0)  -->
<!DOCTYPE svg PUBLIC "-//W3C//DTD SVG 1.1//EN" "http://www.w3.org/Graphics/SVG/1.1/DTD/svg11.dtd">
<svg version="1.1" id="图层_1" xmlns="http://www.w3.org/2000/svg" xmlns:xlink="http://www.w3.org/1999/xlink" x="0px" y="0px"
	 width="70px" height="70px" viewBox="0 0 70 70" enable-background="new 0 0 70 70" xml:space="preserve">
<g>
	<path fill="#FB5D57" d="M35.909,4.297c-16.686,0-30.211,13.53-30.211,30.211c0,16.69,13.525,30.218,30.211,30.218
		c16.686,0,30.213-13.527,30.213-30.218C66.122,17.826,52.595,4.297,35.909,4.297z M56.399,14.188V28.74l-3.941,0.749v-11.57h-11.07
		l-0.751-3.73H56.399z M40.637,19.389l3.577-0.75v11.817h11.432l0.754,3.485H40.637V19.389z M14.967,14.742h15.76l-0.749,3.729
		H18.909v11.575l-3.942-0.752V14.742z M58.661,46.699h-1.66v8.283H41.242l0.75-3.242h11.065v-5.041H30.948v3.961l-4.186,0.751
		v-4.712h-7.63v5.917h11.066l0.749,3.246h-15.76v-9.163h-1.357v-1.451h1.357v-3.932l3.943-0.757v4.688h7.63v-6.146h-10.82
		l-0.752-2.994h15.759v9.14h22.109v-5.566l3.943,0.756v4.815h1.66V46.699z"/>
	<path fill="#FB5D57" d="M66.81,1H3.19C1.428,1,0,2.431,0,4.191v61.277c0,1.769,1.429,3.195,3.19,3.195h63.62
		c1.762,0,3.19-1.43,3.19-3.195V4.19C69.997,2.429,68.571,1,66.81,1z M35.909,67.17c-7.84,0-15.033-2.766-20.663-7.372l-7.243,8.048
		l-4.752-3.119l8.214-8.569c-5.108-5.766-8.214-13.345-8.214-21.651c0-18.037,14.621-32.659,32.658-32.659
		c18.04,0,32.661,14.624,32.661,32.659C68.57,52.545,53.949,67.17,35.909,67.17z"/>
</g>
<path fill="#FFFFFF" d="M35.909,1.847c-18.037,0-32.658,14.622-32.658,32.659c0,8.307,3.105,15.886,8.214,21.651l-8.214,8.569
	l4.752,3.119l7.243-8.048c5.63,4.606,12.823,7.372,20.663,7.372c18.04,0,32.661-14.625,32.661-32.664
	C68.57,16.471,53.949,1.847,35.909,1.847z M35.909,64.727c-16.686,0-30.211-13.527-30.211-30.218
	c0-16.682,13.525-30.211,30.211-30.211c16.686,0,30.213,13.528,30.213,30.211C66.122,51.199,52.595,64.727,35.909,64.727z"/>
<g>
	<polygon fill="#FFFFFF" points="56.399,14.188 56.399,28.74 52.458,29.489 52.458,17.919 41.388,17.919 40.637,14.188 	"/>
	<polygon fill="#FFFFFF" points="40.637,19.389 44.214,18.639 44.214,30.456 55.646,30.456 56.399,33.941 40.637,33.941 	"/>
	<polygon fill="#FFFFFF" points="14.967,14.742 30.728,14.742 29.979,18.471 18.909,18.471 18.909,30.046 14.967,29.294 	"/>
	<polygon fill="#FFFFFF" points="58.661,46.699 57.001,46.699 57.001,54.982 41.242,54.982 41.992,51.74 53.058,51.74 
		53.058,46.699 30.948,46.699 30.948,50.66 26.763,51.411 26.763,46.699 19.133,46.699 19.133,52.616 30.199,52.616 30.948,55.862 
		15.188,55.862 15.188,46.699 13.831,46.699 13.831,45.248 15.188,45.248 15.188,41.315 19.131,40.56 19.131,45.248 26.762,45.248 
		26.762,39.103 15.941,39.103 15.189,36.108 30.948,36.108 30.948,45.248 53.058,45.248 53.058,39.68 57.001,40.435 57.001,45.251 
		58.661,45.251 	"/>
</g>
</svg>
